<mxfile host="app.diagrams.net" modified="2022-04-20T08:29:01.684Z" agent="5.0 (X11)" etag="geZRijTKrhlHmGiFS_Sy" version="17.4.5" type="github">
  <diagram id="JgXIvM1qViH8pjKch7Ti" name="Page-1">
    <mxGraphModel dx="1786" dy="1632" grid="1" gridSize="10" guides="1" tooltips="1" connect="1" arrows="1" fold="1" page="1" pageScale="1" pageWidth="850" pageHeight="1100" math="0" shadow="0">
      <root>
        <mxCell id="0" />
        <mxCell id="1" parent="0" />
        <mxCell id="aZw8yki4Z_lUMcvy7c7Y-1" value="Empoyee" style="swimlane;fontStyle=1;align=center;verticalAlign=top;childLayout=stackLayout;horizontal=1;startSize=26;horizontalStack=0;resizeParent=1;resizeParentMax=0;resizeLast=0;collapsible=1;marginBottom=0;" vertex="1" parent="1">
          <mxGeometry x="320" y="172" width="160" height="88" as="geometry" />
        </mxCell>
        <mxCell id="aZw8yki4Z_lUMcvy7c7Y-2" value="- name : String&#xa;- age : int&#xa;- payment : bigDecimal&#xa;&#xa;" style="text;strokeColor=none;fillColor=none;align=left;verticalAlign=top;spacingLeft=4;spacingRight=4;overflow=hidden;rotatable=0;points=[[0,0.5],[1,0.5]];portConstraint=eastwest;" vertex="1" parent="aZw8yki4Z_lUMcvy7c7Y-1">
          <mxGeometry y="26" width="160" height="54" as="geometry" />
        </mxCell>
        <mxCell id="aZw8yki4Z_lUMcvy7c7Y-3" value="" style="line;strokeWidth=1;fillColor=none;align=left;verticalAlign=middle;spacingTop=-1;spacingLeft=3;spacingRight=3;rotatable=0;labelPosition=right;points=[];portConstraint=eastwest;" vertex="1" parent="aZw8yki4Z_lUMcvy7c7Y-1">
          <mxGeometry y="80" width="160" height="8" as="geometry" />
        </mxCell>
        <mxCell id="aZw8yki4Z_lUMcvy7c7Y-5" value="CarPart" style="swimlane;fontStyle=1;align=center;verticalAlign=top;childLayout=stackLayout;horizontal=1;startSize=26;horizontalStack=0;resizeParent=1;resizeParentMax=0;resizeLast=0;collapsible=1;marginBottom=0;" vertex="1" parent="1">
          <mxGeometry x="530" y="190" width="160" height="60" as="geometry" />
        </mxCell>
        <mxCell id="aZw8yki4Z_lUMcvy7c7Y-6" value="- Cost : bigDecimal" style="text;strokeColor=none;fillColor=none;align=left;verticalAlign=top;spacingLeft=4;spacingRight=4;overflow=hidden;rotatable=0;points=[[0,0.5],[1,0.5]];portConstraint=eastwest;" vertex="1" parent="aZw8yki4Z_lUMcvy7c7Y-5">
          <mxGeometry y="26" width="160" height="26" as="geometry" />
        </mxCell>
        <mxCell id="aZw8yki4Z_lUMcvy7c7Y-7" value="" style="line;strokeWidth=1;fillColor=none;align=left;verticalAlign=middle;spacingTop=-1;spacingLeft=3;spacingRight=3;rotatable=0;labelPosition=right;points=[];portConstraint=eastwest;" vertex="1" parent="aZw8yki4Z_lUMcvy7c7Y-5">
          <mxGeometry y="52" width="160" height="8" as="geometry" />
        </mxCell>
        <mxCell id="aZw8yki4Z_lUMcvy7c7Y-9" value="Car" style="swimlane;fontStyle=1;align=center;verticalAlign=top;childLayout=stackLayout;horizontal=1;startSize=26;horizontalStack=0;resizeParent=1;resizeParentMax=0;resizeLast=0;collapsible=1;marginBottom=0;" vertex="1" parent="1">
          <mxGeometry x="120" y="172" width="160" height="104" as="geometry" />
        </mxCell>
        <mxCell id="aZw8yki4Z_lUMcvy7c7Y-10" value="- driver : Driver&#xa;- carPart : List&lt;CarPart&gt;&#xa;&#xa;" style="text;strokeColor=none;fillColor=none;align=left;verticalAlign=top;spacingLeft=4;spacingRight=4;overflow=hidden;rotatable=0;points=[[0,0.5],[1,0.5]];portConstraint=eastwest;" vertex="1" parent="aZw8yki4Z_lUMcvy7c7Y-9">
          <mxGeometry y="26" width="160" height="44" as="geometry" />
        </mxCell>
        <mxCell id="aZw8yki4Z_lUMcvy7c7Y-11" value="" style="line;strokeWidth=1;fillColor=none;align=left;verticalAlign=middle;spacingTop=-1;spacingLeft=3;spacingRight=3;rotatable=0;labelPosition=right;points=[];portConstraint=eastwest;" vertex="1" parent="aZw8yki4Z_lUMcvy7c7Y-9">
          <mxGeometry y="70" width="160" height="8" as="geometry" />
        </mxCell>
        <mxCell id="aZw8yki4Z_lUMcvy7c7Y-12" value="+ BayNewCarpart() : void" style="text;strokeColor=none;fillColor=none;align=left;verticalAlign=top;spacingLeft=4;spacingRight=4;overflow=hidden;rotatable=0;points=[[0,0.5],[1,0.5]];portConstraint=eastwest;" vertex="1" parent="aZw8yki4Z_lUMcvy7c7Y-9">
          <mxGeometry y="78" width="160" height="26" as="geometry" />
        </mxCell>
        <mxCell id="aZw8yki4Z_lUMcvy7c7Y-13" value="Engineer" style="swimlane;fontStyle=1;align=center;verticalAlign=top;childLayout=stackLayout;horizontal=1;startSize=26;horizontalStack=0;resizeParent=1;resizeParentMax=0;resizeLast=0;collapsible=1;marginBottom=0;" vertex="1" parent="1">
          <mxGeometry x="490" y="340" width="160" height="34" as="geometry" />
        </mxCell>
        <mxCell id="aZw8yki4Z_lUMcvy7c7Y-15" value="" style="line;strokeWidth=1;fillColor=none;align=left;verticalAlign=middle;spacingTop=-1;spacingLeft=3;spacingRight=3;rotatable=0;labelPosition=right;points=[];portConstraint=eastwest;" vertex="1" parent="aZw8yki4Z_lUMcvy7c7Y-13">
          <mxGeometry y="26" width="160" height="8" as="geometry" />
        </mxCell>
        <mxCell id="aZw8yki4Z_lUMcvy7c7Y-17" value="CrewMember" style="swimlane;fontStyle=1;align=center;verticalAlign=top;childLayout=stackLayout;horizontal=1;startSize=26;horizontalStack=0;resizeParent=1;resizeParentMax=0;resizeLast=0;collapsible=1;marginBottom=0;" vertex="1" parent="1">
          <mxGeometry x="320" y="340" width="160" height="34" as="geometry" />
        </mxCell>
        <mxCell id="aZw8yki4Z_lUMcvy7c7Y-19" value="" style="line;strokeWidth=1;fillColor=none;align=left;verticalAlign=middle;spacingTop=-1;spacingLeft=3;spacingRight=3;rotatable=0;labelPosition=right;points=[];portConstraint=eastwest;" vertex="1" parent="aZw8yki4Z_lUMcvy7c7Y-17">
          <mxGeometry y="26" width="160" height="8" as="geometry" />
        </mxCell>
        <mxCell id="aZw8yki4Z_lUMcvy7c7Y-21" value="Driver" style="swimlane;fontStyle=1;align=center;verticalAlign=top;childLayout=stackLayout;horizontal=1;startSize=26;horizontalStack=0;resizeParent=1;resizeParentMax=0;resizeLast=0;collapsible=1;marginBottom=0;" vertex="1" parent="1">
          <mxGeometry x="150" y="340" width="160" height="60" as="geometry" />
        </mxCell>
        <mxCell id="aZw8yki4Z_lUMcvy7c7Y-31" value="" style="endArrow=diamondThin;endFill=0;endSize=24;html=1;rounded=0;entryX=0.506;entryY=1;entryDx=0;entryDy=0;entryPerimeter=0;" edge="1" parent="aZw8yki4Z_lUMcvy7c7Y-21" target="aZw8yki4Z_lUMcvy7c7Y-12">
          <mxGeometry width="160" relative="1" as="geometry">
            <mxPoint x="40" as="sourcePoint" />
            <mxPoint x="40" y="-60" as="targetPoint" />
          </mxGeometry>
        </mxCell>
        <mxCell id="aZw8yki4Z_lUMcvy7c7Y-22" value="- experience : ExpLevel" style="text;strokeColor=none;fillColor=none;align=left;verticalAlign=top;spacingLeft=4;spacingRight=4;overflow=hidden;rotatable=0;points=[[0,0.5],[1,0.5]];portConstraint=eastwest;" vertex="1" parent="aZw8yki4Z_lUMcvy7c7Y-21">
          <mxGeometry y="26" width="160" height="26" as="geometry" />
        </mxCell>
        <mxCell id="aZw8yki4Z_lUMcvy7c7Y-23" value="" style="line;strokeWidth=1;fillColor=none;align=left;verticalAlign=middle;spacingTop=-1;spacingLeft=3;spacingRight=3;rotatable=0;labelPosition=right;points=[];portConstraint=eastwest;" vertex="1" parent="aZw8yki4Z_lUMcvy7c7Y-21">
          <mxGeometry y="52" width="160" height="8" as="geometry" />
        </mxCell>
        <mxCell id="aZw8yki4Z_lUMcvy7c7Y-27" value="" style="endArrow=block;endSize=16;endFill=0;html=1;rounded=0;exitX=0.556;exitY=-0.012;exitDx=0;exitDy=0;exitPerimeter=0;entryX=0.25;entryY=1;entryDx=0;entryDy=0;" edge="1" parent="1" source="aZw8yki4Z_lUMcvy7c7Y-21" target="aZw8yki4Z_lUMcvy7c7Y-1">
          <mxGeometry width="160" relative="1" as="geometry">
            <mxPoint x="280" y="490" as="sourcePoint" />
            <mxPoint x="330" y="300" as="targetPoint" />
            <Array as="points">
              <mxPoint x="239" y="320" />
              <mxPoint x="360" y="320" />
            </Array>
          </mxGeometry>
        </mxCell>
        <mxCell id="aZw8yki4Z_lUMcvy7c7Y-29" value="" style="endArrow=block;endSize=16;endFill=0;html=1;rounded=0;entryX=0.5;entryY=1;entryDx=0;entryDy=0;exitX=0.5;exitY=0;exitDx=0;exitDy=0;" edge="1" parent="1" source="aZw8yki4Z_lUMcvy7c7Y-17" target="aZw8yki4Z_lUMcvy7c7Y-1">
          <mxGeometry width="160" relative="1" as="geometry">
            <mxPoint x="250" y="500" as="sourcePoint" />
            <mxPoint x="400" y="286.76" as="targetPoint" />
          </mxGeometry>
        </mxCell>
        <mxCell id="aZw8yki4Z_lUMcvy7c7Y-30" value="" style="endArrow=block;endSize=16;endFill=0;html=1;rounded=0;exitX=0.5;exitY=0;exitDx=0;exitDy=0;" edge="1" parent="1" source="aZw8yki4Z_lUMcvy7c7Y-13">
          <mxGeometry width="160" relative="1" as="geometry">
            <mxPoint x="350" y="560" as="sourcePoint" />
            <mxPoint x="430" y="260" as="targetPoint" />
            <Array as="points">
              <mxPoint x="570" y="320" />
              <mxPoint x="432" y="320" />
            </Array>
          </mxGeometry>
        </mxCell>
        <mxCell id="aZw8yki4Z_lUMcvy7c7Y-32" value="&lt;&lt;Enum&gt;&gt;&#xa;ExpLevel" style="swimlane;fontStyle=1;align=center;verticalAlign=top;childLayout=stackLayout;horizontal=1;startSize=40;horizontalStack=0;resizeParent=1;resizeParentMax=0;resizeLast=0;collapsible=1;marginBottom=0;" vertex="1" parent="1">
          <mxGeometry x="-90" y="310" width="160" height="90" as="geometry" />
        </mxCell>
        <mxCell id="aZw8yki4Z_lUMcvy7c7Y-33" value="+Beginner&#xa;+Medium&#xa;+Intermediet&#xa;" style="text;strokeColor=none;fillColor=none;align=left;verticalAlign=top;spacingLeft=4;spacingRight=4;overflow=hidden;rotatable=0;points=[[0,0.5],[1,0.5]];portConstraint=eastwest;" vertex="1" parent="aZw8yki4Z_lUMcvy7c7Y-32">
          <mxGeometry y="40" width="160" height="50" as="geometry" />
        </mxCell>
        <mxCell id="aZw8yki4Z_lUMcvy7c7Y-34" value="" style="line;strokeWidth=1;fillColor=none;align=left;verticalAlign=middle;spacingTop=-1;spacingLeft=3;spacingRight=3;rotatable=0;labelPosition=right;points=[];portConstraint=eastwest;" vertex="1" parent="aZw8yki4Z_lUMcvy7c7Y-32">
          <mxGeometry y="90" width="160" as="geometry" />
        </mxCell>
        <mxCell id="aZw8yki4Z_lUMcvy7c7Y-38" value="" style="endArrow=diamondThin;endFill=1;endSize=24;html=1;rounded=0;entryX=-0.012;entryY=0.115;entryDx=0;entryDy=0;entryPerimeter=0;exitX=0.994;exitY=0.34;exitDx=0;exitDy=0;exitPerimeter=0;" edge="1" parent="1" source="aZw8yki4Z_lUMcvy7c7Y-33" target="aZw8yki4Z_lUMcvy7c7Y-22">
          <mxGeometry width="160" relative="1" as="geometry">
            <mxPoint x="100" y="450" as="sourcePoint" />
            <mxPoint x="100" y="400" as="targetPoint" />
          </mxGeometry>
        </mxCell>
        <mxCell id="aZw8yki4Z_lUMcvy7c7Y-40" value="Race" style="swimlane;fontStyle=1;align=center;verticalAlign=top;childLayout=stackLayout;horizontal=1;startSize=26;horizontalStack=0;resizeParent=1;resizeParentMax=0;resizeLast=0;collapsible=1;marginBottom=0;" vertex="1" parent="1">
          <mxGeometry x="120" y="30" width="180" height="118" as="geometry" />
        </mxCell>
        <mxCell id="aZw8yki4Z_lUMcvy7c7Y-41" value="- car : Car&#xa;- placement : Placement" style="text;strokeColor=none;fillColor=none;align=left;verticalAlign=top;spacingLeft=4;spacingRight=4;overflow=hidden;rotatable=0;points=[[0,0.5],[1,0.5]];portConstraint=eastwest;" vertex="1" parent="aZw8yki4Z_lUMcvy7c7Y-40">
          <mxGeometry y="26" width="180" height="44" as="geometry" />
        </mxCell>
        <mxCell id="aZw8yki4Z_lUMcvy7c7Y-42" value="" style="line;strokeWidth=1;fillColor=none;align=left;verticalAlign=middle;spacingTop=-1;spacingLeft=3;spacingRight=3;rotatable=0;labelPosition=right;points=[];portConstraint=eastwest;" vertex="1" parent="aZw8yki4Z_lUMcvy7c7Y-40">
          <mxGeometry y="70" width="180" height="8" as="geometry" />
        </mxCell>
        <mxCell id="aZw8yki4Z_lUMcvy7c7Y-43" value="+ getDriverSalary():bigDecimal&#xa;+ getPayment():bigDecimal&#xa; " style="text;strokeColor=none;fillColor=none;align=left;verticalAlign=top;spacingLeft=4;spacingRight=4;overflow=hidden;rotatable=0;points=[[0,0.5],[1,0.5]];portConstraint=eastwest;" vertex="1" parent="aZw8yki4Z_lUMcvy7c7Y-40">
          <mxGeometry y="78" width="180" height="40" as="geometry" />
        </mxCell>
        <mxCell id="aZw8yki4Z_lUMcvy7c7Y-45" value="" style="endArrow=diamondThin;endFill=1;endSize=24;html=1;rounded=0;entryX=1;entryY=0.5;entryDx=0;entryDy=0;" edge="1" parent="1" source="aZw8yki4Z_lUMcvy7c7Y-5" target="aZw8yki4Z_lUMcvy7c7Y-10">
          <mxGeometry width="160" relative="1" as="geometry">
            <mxPoint x="600" y="180" as="sourcePoint" />
            <mxPoint x="240" y="170" as="targetPoint" />
            <Array as="points">
              <mxPoint x="610" y="140" />
              <mxPoint x="320" y="140" />
            </Array>
          </mxGeometry>
        </mxCell>
        <mxCell id="aZw8yki4Z_lUMcvy7c7Y-54" value="" style="endArrow=diamondThin;endFill=0;endSize=24;html=1;rounded=0;entryX=0.5;entryY=1;entryDx=0;entryDy=0;exitX=0.5;exitY=0;exitDx=0;exitDy=0;" edge="1" parent="1" source="aZw8yki4Z_lUMcvy7c7Y-9" target="aZw8yki4Z_lUMcvy7c7Y-40">
          <mxGeometry width="160" relative="1" as="geometry">
            <mxPoint x="330" y="230" as="sourcePoint" />
            <mxPoint x="490" y="230" as="targetPoint" />
          </mxGeometry>
        </mxCell>
        <mxCell id="aZw8yki4Z_lUMcvy7c7Y-55" value="Season" style="swimlane;fontStyle=1;align=center;verticalAlign=top;childLayout=stackLayout;horizontal=1;startSize=26;horizontalStack=0;resizeParent=1;resizeParentMax=0;resizeLast=0;collapsible=1;marginBottom=0;" vertex="1" parent="1">
          <mxGeometry x="370" y="-60" width="180" height="170" as="geometry" />
        </mxCell>
        <mxCell id="aZw8yki4Z_lUMcvy7c7Y-56" value="- races : List&lt;Races&gt;&#xa;- emploees : List&lt;Emploee&gt; &#xa;- cars : List&lt;Car&gt;&#xa;- incom : bigDecimal&#xa;- payCost : bigDecimal&#xa;&#xa;&#xa;" style="text;strokeColor=none;fillColor=none;align=left;verticalAlign=top;spacingLeft=4;spacingRight=4;overflow=hidden;rotatable=0;points=[[0,0.5],[1,0.5]];portConstraint=eastwest;" vertex="1" parent="aZw8yki4Z_lUMcvy7c7Y-55">
          <mxGeometry y="26" width="180" height="74" as="geometry" />
        </mxCell>
        <mxCell id="aZw8yki4Z_lUMcvy7c7Y-57" value="" style="line;strokeWidth=1;fillColor=none;align=left;verticalAlign=middle;spacingTop=-1;spacingLeft=3;spacingRight=3;rotatable=0;labelPosition=right;points=[];portConstraint=eastwest;" vertex="1" parent="aZw8yki4Z_lUMcvy7c7Y-55">
          <mxGeometry y="100" width="180" height="8" as="geometry" />
        </mxCell>
        <mxCell id="aZw8yki4Z_lUMcvy7c7Y-58" value="- payEmploees() : void&#xa;- playRaces() : void&#xa;+ calculateProfit() : bigDacimal" style="text;strokeColor=none;fillColor=none;align=left;verticalAlign=top;spacingLeft=4;spacingRight=4;overflow=hidden;rotatable=0;points=[[0,0.5],[1,0.5]];portConstraint=eastwest;" vertex="1" parent="aZw8yki4Z_lUMcvy7c7Y-55">
          <mxGeometry y="108" width="180" height="62" as="geometry" />
        </mxCell>
        <mxCell id="aZw8yki4Z_lUMcvy7c7Y-59" value="" style="endArrow=diamondThin;endFill=1;endSize=24;html=1;rounded=0;exitX=1;exitY=0.5;exitDx=0;exitDy=0;entryX=-0.012;entryY=0.716;entryDx=0;entryDy=0;entryPerimeter=0;" edge="1" parent="1" source="aZw8yki4Z_lUMcvy7c7Y-41" target="aZw8yki4Z_lUMcvy7c7Y-56">
          <mxGeometry width="160" relative="1" as="geometry">
            <mxPoint x="210" y="72.5" as="sourcePoint" />
            <mxPoint x="370" y="70" as="targetPoint" />
          </mxGeometry>
        </mxCell>
        <mxCell id="aZw8yki4Z_lUMcvy7c7Y-60" value="" style="endArrow=diamondThin;endFill=1;endSize=24;html=1;rounded=0;exitX=0.75;exitY=0;exitDx=0;exitDy=0;entryX=0.444;entryY=0.962;entryDx=0;entryDy=0;entryPerimeter=0;" edge="1" parent="1" source="aZw8yki4Z_lUMcvy7c7Y-1" target="aZw8yki4Z_lUMcvy7c7Y-58">
          <mxGeometry width="160" relative="1" as="geometry">
            <mxPoint x="330" y="200" as="sourcePoint" />
            <mxPoint x="440" y="140" as="targetPoint" />
          </mxGeometry>
        </mxCell>
        <mxCell id="aZw8yki4Z_lUMcvy7c7Y-61" value="" style="endArrow=diamondThin;endFill=1;endSize=24;html=1;rounded=0;exitX=1;exitY=0;exitDx=0;exitDy=0;" edge="1" parent="1" source="aZw8yki4Z_lUMcvy7c7Y-9">
          <mxGeometry width="160" relative="1" as="geometry">
            <mxPoint x="330" y="230" as="sourcePoint" />
            <mxPoint x="366" y="90" as="targetPoint" />
          </mxGeometry>
        </mxCell>
        <mxCell id="aZw8yki4Z_lUMcvy7c7Y-63" value="&lt;&lt;Enum&gt;&gt;&#xa;Placement&#xa;" style="swimlane;fontStyle=1;align=center;verticalAlign=top;childLayout=stackLayout;horizontal=1;startSize=40;horizontalStack=0;resizeParent=1;resizeParentMax=0;resizeLast=0;collapsible=1;marginBottom=0;" vertex="1" parent="1">
          <mxGeometry x="-100" y="30" width="160" height="94" as="geometry" />
        </mxCell>
        <mxCell id="aZw8yki4Z_lUMcvy7c7Y-64" value="+ FIRST&#xa;+ SECOND&#xa;+ OTHER&#xa;" style="text;strokeColor=none;fillColor=none;align=left;verticalAlign=top;spacingLeft=4;spacingRight=4;overflow=hidden;rotatable=0;points=[[0,0.5],[1,0.5]];portConstraint=eastwest;" vertex="1" parent="aZw8yki4Z_lUMcvy7c7Y-63">
          <mxGeometry y="40" width="160" height="50" as="geometry" />
        </mxCell>
        <mxCell id="aZw8yki4Z_lUMcvy7c7Y-65" value="" style="line;strokeWidth=1;fillColor=none;align=left;verticalAlign=middle;spacingTop=-1;spacingLeft=3;spacingRight=3;rotatable=0;labelPosition=right;points=[];portConstraint=eastwest;" vertex="1" parent="aZw8yki4Z_lUMcvy7c7Y-63">
          <mxGeometry y="90" width="160" height="4" as="geometry" />
        </mxCell>
        <mxCell id="aZw8yki4Z_lUMcvy7c7Y-67" value="" style="endArrow=diamondThin;endFill=1;endSize=24;html=1;rounded=0;exitX=1;exitY=0.5;exitDx=0;exitDy=0;" edge="1" parent="1" source="aZw8yki4Z_lUMcvy7c7Y-64">
          <mxGeometry width="160" relative="1" as="geometry">
            <mxPoint x="40" y="88.5" as="sourcePoint" />
            <mxPoint x="120" y="90" as="targetPoint" />
          </mxGeometry>
        </mxCell>
      </root>
    </mxGraphModel>
  </diagram>
</mxfile>
